<svg id="svg" version="1.1" xmlns="http://www.w3.org/2000/svg" xmlns:xlink="http://www.w3.org/1999/xlink" width="400" height="400" viewBox="0, 0, 400,400"><g id="svgg"><path id="path0" d="M77.038 0.292 C 75.488 0.523,70.800 5.298,70.800 6.646 C 70.800 7.171,70.620 7.600,70.400 7.600 C 70.134 7.600,70.000 42.733,70.000 112.200 C 70.000 181.667,69.866 216.800,69.600 216.800 C 69.380 216.800,69.200 216.609,69.200 216.376 C 69.200 216.143,69.035 216.055,68.832 216.180 C 68.630 216.305,68.193 216.136,67.861 215.804 C 67.529 215.472,66.974 215.200,66.629 215.200 C 66.283 215.200,66.000 215.020,66.000 214.800 C 66.000 214.580,65.460 214.400,64.800 214.400 C 64.140 214.400,63.600 214.220,63.600 214.000 C 63.600 213.780,63.251 213.600,62.824 213.600 C 62.397 213.600,61.953 213.448,61.838 213.261 C 61.723 213.075,61.055 212.906,60.353 212.886 C 59.652 212.866,58.971 212.685,58.839 212.483 C 58.245 211.570,38.451 210.711,39.014 211.622 C 39.238 211.985,37.950 212.163,36.138 212.021 C 35.664 211.983,35.159 212.143,35.015 212.376 C 34.871 212.609,34.223 212.800,33.576 212.800 C 32.929 212.800,32.400 213.010,32.400 213.267 C 32.400 213.523,32.286 213.620,32.147 213.481 C 32.009 213.342,31.519 213.492,31.058 213.814 C 30.598 214.136,29.651 214.400,28.954 214.400 C 28.173 214.400,27.593 214.640,27.446 215.025 C 27.314 215.369,27.024 215.539,26.803 215.402 C 26.581 215.265,26.397 215.298,26.394 215.476 C 26.390 215.654,25.490 216.240,24.394 216.779 C 23.297 217.317,22.400 217.902,22.400 218.079 C 22.400 218.255,22.117 218.400,21.771 218.400 C 21.426 218.400,20.871 218.672,20.539 219.004 C 20.207 219.336,19.742 219.488,19.506 219.342 C 19.251 219.185,19.193 219.264,19.362 219.538 C 19.523 219.799,19.415 220.000,19.112 220.000 C 18.817 220.000,18.324 220.350,18.015 220.779 C 17.707 221.207,17.327 221.479,17.172 221.383 C 17.017 221.287,15.565 222.527,13.945 224.139 C 10.818 227.252,9.456 228.800,9.846 228.800 C 9.977 228.800,9.571 229.297,8.942 229.904 C 8.314 230.511,7.742 231.276,7.670 231.604 C 7.599 231.932,7.374 232.260,7.170 232.333 C 6.967 232.407,6.800 232.812,6.800 233.233 C 6.800 233.655,6.620 234.000,6.400 234.000 C 6.180 234.000,6.000 234.270,6.000 234.600 C 6.000 234.930,5.820 235.200,5.600 235.200 C 5.380 235.200,5.200 235.470,5.200 235.800 C 5.200 236.130,5.020 236.400,4.800 236.400 C 4.580 236.400,4.400 236.760,4.400 237.200 C 4.400 237.640,4.220 238.000,4.000 238.000 C 3.780 238.000,3.600 238.249,3.600 238.554 C 3.600 238.859,3.339 239.611,3.020 240.226 C 2.702 240.840,2.532 241.491,2.644 241.671 C 2.756 241.852,2.702 242.001,2.524 242.003 C 2.024 242.008,1.200 244.033,1.200 245.256 C 1.200 245.859,1.059 246.440,0.887 246.546 C 0.013 247.086,-0.168 270.011,0.700 270.300 C 0.987 270.396,1.200 271.135,1.200 272.033 C 1.200 272.895,1.380 273.600,1.600 273.600 C 1.820 273.600,2.000 273.960,2.000 274.400 C 2.000 274.840,2.180 275.200,2.400 275.200 C 2.620 275.200,2.800 275.740,2.800 276.400 C 2.800 277.060,2.980 277.600,3.200 277.600 C 3.420 277.600,3.600 277.960,3.600 278.400 C 3.600 278.840,3.780 279.200,4.000 279.200 C 4.220 279.200,4.400 279.560,4.400 280.000 C 4.400 280.440,4.580 280.800,4.800 280.800 C 5.020 280.800,5.200 281.120,5.200 281.512 C 5.200 281.903,5.550 282.476,5.979 282.785 C 6.407 283.093,6.681 283.470,6.587 283.621 C 6.493 283.773,6.769 284.303,7.200 284.800 C 7.631 285.297,7.895 285.847,7.786 286.023 C 7.677 286.199,7.951 286.457,8.394 286.598 C 8.837 286.739,9.200 287.093,9.200 287.384 C 9.200 287.676,9.481 288.022,9.825 288.154 C 10.169 288.286,10.346 288.564,10.217 288.772 C 9.932 289.234,16.529 295.860,17.619 296.206 C 18.049 296.342,18.400 296.622,18.400 296.827 C 18.400 297.032,18.681 297.200,19.024 297.200 C 19.367 297.200,19.536 297.380,19.400 297.600 C 19.264 297.820,19.508 298.000,19.943 298.000 C 20.378 298.000,20.793 298.166,20.867 298.370 C 20.940 298.573,21.270 298.798,21.600 298.870 C 21.930 298.941,22.491 299.315,22.847 299.700 C 23.203 300.085,23.788 300.400,24.147 300.400 C 24.506 300.400,24.800 300.580,24.800 300.800 C 24.800 301.020,25.160 301.200,25.600 301.200 C 26.040 301.200,26.400 301.380,26.400 301.600 C 26.400 301.820,26.670 302.000,27.000 302.000 C 27.330 302.000,27.600 302.180,27.600 302.400 C 27.600 302.620,28.275 302.803,29.100 302.806 C 30.088 302.810,30.416 302.929,30.059 303.155 C 29.667 303.403,29.832 303.559,30.659 303.724 C 31.287 303.849,32.610 304.152,33.600 304.397 C 34.590 304.643,36.210 305.036,37.200 305.270 C 39.644 305.849,54.766 306.126,55.396 305.604 C 55.663 305.382,56.403 305.168,57.040 305.128 C 57.678 305.088,58.398 304.908,58.640 304.728 C 58.883 304.548,59.603 304.367,60.240 304.326 C 60.878 304.284,61.878 303.924,62.462 303.525 C 63.046 303.126,64.081 302.800,64.762 302.800 C 65.443 302.800,66.000 302.620,66.000 302.400 C 66.000 302.180,66.225 301.996,66.500 301.991 C 66.775 301.986,67.450 301.630,68.000 301.200 C 68.550 300.770,69.249 300.414,69.552 300.409 C 69.856 300.404,70.981 299.770,72.053 299.000 C 73.125 298.230,74.172 297.600,74.381 297.600 C 74.590 297.600,74.904 297.375,75.080 297.099 C 75.256 296.824,75.898 296.342,76.508 296.028 C 77.123 295.710,77.431 295.343,77.200 295.200 C 76.968 295.057,77.264 294.691,77.871 294.372 C 79.662 293.429,85.600 287.266,85.600 286.350 C 85.600 286.099,85.988 285.558,86.461 285.147 C 86.935 284.736,87.196 284.400,87.041 284.400 C 86.886 284.400,87.218 283.798,87.780 283.062 C 88.341 282.326,88.800 281.516,88.800 281.262 C 88.800 281.008,88.980 280.800,89.200 280.800 C 89.420 280.800,89.600 280.528,89.600 280.195 C 89.600 279.520,90.407 277.940,90.955 277.543 C 91.150 277.401,91.220 276.816,91.110 276.243 C 91.001 275.669,91.066 275.200,91.255 275.200 C 91.445 275.200,91.600 274.840,91.600 274.400 C 91.600 273.960,91.780 273.600,92.000 273.600 C 92.220 273.600,92.400 272.981,92.400 272.224 C 92.400 271.467,92.580 270.736,92.800 270.600 C 93.020 270.464,93.200 269.633,93.200 268.753 C 93.200 267.721,93.352 267.246,93.627 267.417 C 93.861 267.562,94.020 267.437,93.979 267.140 C 93.800 265.837,94.084 147.851,94.265 148.300 C 94.376 148.575,94.682 148.800,94.945 148.800 C 95.208 148.800,95.676 149.150,95.985 149.579 C 96.293 150.007,96.653 150.291,96.784 150.210 C 96.916 150.129,97.736 150.678,98.607 151.431 C 99.478 152.184,100.417 152.800,100.692 152.800 C 100.968 152.800,101.418 153.160,101.693 153.600 C 101.968 154.040,102.494 154.400,102.863 154.400 C 103.232 154.400,103.593 154.561,103.667 154.758 C 103.817 155.161,105.858 156.441,108.098 157.537 C 108.922 157.940,109.477 158.389,109.332 158.535 C 109.186 158.681,109.367 158.800,109.733 158.800 C 110.100 158.800,110.400 158.942,110.400 159.115 C 110.400 159.288,110.802 159.460,111.294 159.497 C 111.786 159.534,112.251 159.752,112.327 159.982 C 112.404 160.212,112.639 160.400,112.850 160.400 C 113.298 160.400,115.739 162.062,115.933 162.500 C 116.007 162.665,116.412 162.800,116.833 162.800 C 117.255 162.800,117.600 162.980,117.600 163.200 C 117.600 163.420,117.960 163.600,118.400 163.600 C 118.840 163.600,119.200 163.780,119.200 164.000 C 119.200 164.220,119.605 164.403,120.100 164.406 C 120.828 164.411,120.885 164.486,120.400 164.800 C 119.890 165.130,119.908 165.189,120.517 165.194 C 120.911 165.197,121.620 165.560,122.092 166.000 C 122.564 166.440,123.187 166.800,123.475 166.800 C 123.764 166.800,124.000 166.980,124.000 167.200 C 124.000 167.420,124.360 167.600,124.800 167.600 C 125.240 167.600,125.600 167.791,125.600 168.024 C 125.600 168.257,125.747 168.356,125.927 168.245 C 126.107 168.134,126.718 168.473,127.284 168.998 C 127.851 169.523,128.398 169.869,128.500 169.767 C 128.602 169.664,128.914 169.855,129.192 170.190 C 129.470 170.526,129.936 170.800,130.226 170.800 C 130.517 170.800,130.990 171.126,131.277 171.524 C 131.968 172.482,133.037 173.142,132.632 172.362 C 132.472 172.053,132.599 172.115,132.914 172.500 C 133.230 172.885,133.631 173.200,133.806 173.200 C 133.981 173.200,134.714 173.650,135.436 174.200 C 136.157 174.750,136.956 175.200,137.213 175.200 C 137.469 175.200,138.183 175.740,138.800 176.400 C 139.417 177.060,140.135 177.600,140.397 177.600 C 140.658 177.600,141.740 178.500,142.800 179.600 C 143.860 180.700,145.014 181.600,145.364 181.600 C 145.714 181.600,146.000 181.878,146.000 182.218 C 146.000 182.819,147.704 184.800,148.222 184.800 C 148.675 184.800,151.200 187.501,151.200 187.986 C 151.200 188.242,151.740 188.906,152.400 189.461 C 153.060 190.017,153.600 190.685,153.600 190.947 C 153.600 191.209,153.960 191.683,154.400 192.000 C 154.840 192.317,155.200 192.817,155.200 193.112 C 155.200 193.406,155.380 193.536,155.600 193.400 C 155.820 193.264,156.000 193.523,156.000 193.976 C 156.000 194.429,156.180 194.800,156.400 194.800 C 156.620 194.800,156.800 195.160,156.800 195.600 C 156.800 196.040,156.936 196.400,157.102 196.400 C 157.418 196.400,157.974 197.579,158.836 200.079 C 159.116 200.892,159.523 201.447,159.741 201.313 C 159.971 201.170,160.032 201.340,159.885 201.722 C 159.748 202.081,159.810 202.483,160.024 202.615 C 160.238 202.747,160.309 203.023,160.183 203.228 C 160.056 203.432,160.131 203.600,160.350 203.600 C 160.568 203.600,160.667 204.041,160.569 204.580 C 160.472 205.119,160.632 205.785,160.925 206.059 C 161.219 206.333,161.380 206.972,161.283 207.479 C 161.184 207.996,161.303 208.400,161.553 208.400 C 161.817 208.400,162.000 209.148,162.000 210.226 C 162.000 211.231,162.188 212.405,162.419 212.835 C 162.649 213.265,162.845 215.773,162.855 218.409 C 162.865 221.044,163.036 223.200,163.236 223.200 C 163.436 223.200,163.600 224.089,163.600 225.176 C 163.600 226.263,163.780 227.264,164.000 227.400 C 164.220 227.536,164.400 227.997,164.400 228.424 C 164.400 228.851,164.580 229.200,164.800 229.200 C 165.020 229.200,165.200 229.465,165.200 229.789 C 165.200 230.556,168.644 234.000,169.411 234.000 C 169.735 234.000,170.000 234.180,170.000 234.400 C 170.000 234.620,170.461 234.800,171.024 234.800 C 171.604 234.800,171.940 234.973,171.800 235.200 C 171.641 235.456,172.988 235.600,175.553 235.600 C 177.788 235.600,179.662 235.424,179.800 235.200 C 179.936 234.980,180.397 234.800,180.824 234.800 C 181.251 234.800,181.600 234.620,181.600 234.400 C 181.600 234.180,181.877 234.000,182.216 234.000 C 182.939 234.000,185.875 231.025,186.218 229.945 C 186.348 229.535,186.622 229.200,186.827 229.200 C 187.032 229.200,187.200 228.851,187.200 228.424 C 187.200 227.997,187.380 227.536,187.599 227.400 C 188.114 227.083,188.136 140.400,187.622 140.400 C 187.425 140.400,187.170 139.095,187.057 137.500 C 186.769 133.443,186.378 131.200,185.958 131.200 C 185.761 131.200,185.600 130.401,185.600 129.424 C 185.600 128.447,185.420 127.536,185.200 127.400 C 184.980 127.264,184.800 126.623,184.800 125.976 C 184.800 125.329,184.659 124.800,184.487 124.800 C 184.315 124.800,183.940 123.945,183.654 122.900 C 183.134 121.004,182.621 119.619,181.953 118.305 C 181.759 117.923,181.600 117.263,181.600 116.839 C 181.600 116.414,181.433 116.007,181.230 115.933 C 181.026 115.860,180.801 115.534,180.730 115.210 C 180.658 114.885,180.373 114.375,180.096 114.077 C 179.819 113.779,179.695 113.370,179.820 113.168 C 179.945 112.965,179.857 112.800,179.624 112.800 C 179.391 112.800,179.200 112.440,179.200 112.000 C 179.200 111.560,179.020 111.200,178.800 111.200 C 178.580 111.200,178.400 110.930,178.400 110.600 C 178.400 110.270,178.220 110.000,178.000 110.000 C 177.780 110.000,177.600 109.728,177.600 109.396 C 177.600 109.064,177.060 108.228,176.400 107.537 C 175.740 106.846,175.200 106.038,175.200 105.741 C 175.200 105.443,175.009 105.200,174.776 105.200 C 174.543 105.200,174.464 105.020,174.600 104.801 C 174.899 104.316,173.837 102.696,173.464 103.069 C 173.319 103.214,173.200 103.033,173.200 102.667 C 173.200 102.300,173.048 102.000,172.861 102.000 C 172.675 102.000,172.360 101.664,172.161 101.252 C 171.469 99.820,165.221 92.859,164.587 92.813 C 164.484 92.806,164.209 92.800,163.976 92.800 C 163.743 92.800,163.664 92.620,163.800 92.400 C 163.936 92.180,163.722 91.997,163.324 91.994 C 162.710 91.989,162.691 91.929,163.200 91.600 C 163.707 91.272,163.687 91.211,163.069 91.206 C 162.666 91.203,161.646 90.480,160.800 89.600 C 159.954 88.720,158.949 88.000,158.565 88.000 C 158.181 88.000,157.978 87.889,158.114 87.752 C 158.436 87.431,157.405 86.400,156.762 86.400 C 156.490 86.400,156.377 86.290,156.511 86.156 C 156.805 85.862,154.672 84.000,154.042 84.000 C 153.799 84.000,153.600 83.850,153.600 83.668 C 153.600 83.485,153.105 83.080,152.500 82.768 C 151.895 82.455,151.001 81.809,150.513 81.331 C 150.025 80.853,149.260 80.346,148.813 80.204 C 148.366 80.062,148.000 79.778,148.000 79.573 C 148.000 79.368,147.671 79.200,147.270 79.200 C 146.868 79.200,146.114 78.747,145.594 78.193 C 145.074 77.640,143.962 76.981,143.124 76.730 C 142.286 76.479,141.600 76.051,141.600 75.780 C 141.600 75.509,141.150 75.174,140.600 75.036 C 140.050 74.898,139.600 74.608,139.600 74.392 C 139.600 74.177,139.364 74.000,139.075 74.000 C 138.787 74.000,138.157 73.633,137.675 73.184 C 137.194 72.736,136.800 72.476,136.800 72.607 C 136.800 72.738,136.260 72.526,135.600 72.136 C 134.940 71.746,134.400 71.286,134.400 71.114 C 134.400 70.941,134.207 70.800,133.971 70.800 C 133.736 70.800,133.271 70.528,132.939 70.196 C 132.607 69.864,132.170 69.695,131.968 69.820 C 131.765 69.945,131.600 69.857,131.600 69.624 C 131.600 69.391,131.319 69.200,130.976 69.200 C 130.633 69.200,130.464 69.020,130.600 68.800 C 130.736 68.580,130.549 68.400,130.185 68.400 C 129.549 68.400,127.574 67.184,126.471 66.113 C 126.181 65.831,125.784 65.600,125.590 65.600 C 125.395 65.600,124.797 65.161,124.261 64.624 C 123.724 64.088,123.206 63.727,123.111 63.823 C 123.015 63.918,122.514 63.548,121.999 62.998 C 121.483 62.449,120.832 62.000,120.553 62.000 C 120.274 62.000,119.780 61.620,119.455 61.157 C 119.095 60.644,118.670 60.433,118.370 60.618 C 118.053 60.815,117.978 60.759,118.162 60.462 C 118.412 60.058,118.244 59.961,117.387 60.013 C 117.269 60.020,116.291 59.120,115.213 58.013 C 114.134 56.906,112.940 56.000,112.559 56.000 C 112.178 56.000,111.972 55.895,112.100 55.767 C 112.374 55.492,111.073 54.094,109.622 53.103 C 109.060 52.719,108.838 52.404,109.129 52.403 C 109.535 52.401,109.519 52.262,109.057 51.800 C 108.727 51.470,108.174 51.200,107.829 51.200 C 107.483 51.200,107.200 50.972,107.200 50.694 C 107.200 50.416,106.309 49.087,105.220 47.741 C 104.131 46.395,103.351 45.183,103.486 45.047 C 103.622 44.911,103.545 44.800,103.315 44.800 C 103.085 44.800,102.660 44.215,102.371 43.500 C 102.081 42.785,101.564 41.930,101.222 41.600 C 100.880 41.270,100.541 40.657,100.468 40.237 C 100.395 39.818,100.080 39.083,99.767 38.605 C 99.453 38.127,99.318 37.616,99.465 37.468 C 99.613 37.321,99.523 37.200,99.267 37.200 C 99.010 37.200,98.800 36.851,98.800 36.424 C 98.800 35.997,98.620 35.536,98.400 35.400 C 98.180 35.264,98.000 34.713,98.000 34.176 C 98.000 33.639,97.820 33.200,97.600 33.200 C 97.380 33.200,97.200 32.671,97.200 32.024 C 97.200 31.377,97.020 30.736,96.800 30.600 C 96.580 30.464,96.400 29.838,96.400 29.210 C 96.400 28.581,96.230 28.007,96.022 27.933 C 95.815 27.860,95.604 26.765,95.554 25.500 C 95.504 24.235,95.314 23.200,95.132 23.200 C 94.949 23.200,94.800 20.770,94.800 17.800 C 94.800 14.467,94.647 12.400,94.400 12.400 C 94.178 12.400,94.000 11.333,94.000 10.000 C 94.000 8.667,93.822 7.600,93.600 7.600 C 93.380 7.600,93.200 7.136,93.200 6.569 C 93.200 5.885,92.650 5.009,91.567 3.969 C 90.669 3.106,90.067 2.400,90.230 2.400 C 91.347 2.400,87.964 0.449,86.499 0.248 C 84.559 -0.018,78.949 0.009,77.038 0.292 " stroke="none" fill="#bc9cfc" fill-rule="evenodd"></path><path id="path1" d="M383.480 94.485 C 383.216 94.654,383.592 94.727,384.316 94.647 C 385.040 94.567,385.745 94.388,385.884 94.249 C 386.236 93.897,384.066 94.110,383.480 94.485 M375.200 96.800 C 374.715 97.114,374.772 97.189,375.500 97.194 C 375.995 97.197,376.400 97.020,376.400 96.800 C 376.400 96.299,375.976 96.299,375.200 96.800 M363.739 100.100 C 363.636 100.265,364.003 100.400,364.553 100.400 C 365.103 100.400,365.652 100.239,365.774 100.042 C 365.895 99.846,365.529 99.711,364.960 99.742 C 364.391 99.774,363.841 99.935,363.739 100.100 M361.200 100.885 C 361.200 101.327,362.304 101.279,362.585 100.824 C 362.713 100.618,362.453 100.476,362.009 100.509 C 361.564 100.543,361.200 100.712,361.200 100.885 M336.400 108.000 C 336.400 108.220,336.805 108.397,337.300 108.394 C 338.028 108.389,338.085 108.314,337.600 108.000 C 336.824 107.499,336.400 107.499,336.400 108.000 M311.400 114.800 C 311.264 115.020,311.534 115.200,312.000 115.200 C 312.466 115.200,312.736 115.020,312.600 114.800 C 312.464 114.580,312.194 114.400,312.000 114.400 C 311.806 114.400,311.536 114.580,311.400 114.800 M303.533 117.182 C 303.460 117.393,302.737 117.609,301.926 117.663 C 301.115 117.716,300.541 117.904,300.649 118.080 C 300.758 118.256,300.307 118.400,299.647 118.400 C 298.987 118.400,298.336 118.580,298.200 118.800 C 298.064 119.020,297.344 119.200,296.600 119.200 C 295.856 119.200,295.136 119.380,295.000 119.600 C 294.864 119.820,294.223 120.000,293.576 120.000 C 292.929 120.000,292.400 120.180,292.400 120.400 C 292.400 120.620,291.770 120.800,291.000 120.800 C 290.230 120.800,289.600 120.980,289.600 121.200 C 289.600 121.420,288.981 121.600,288.224 121.600 C 287.467 121.600,286.736 121.780,286.600 122.000 C 286.464 122.220,285.924 122.400,285.400 122.400 C 284.876 122.400,284.336 122.580,284.200 122.800 C 284.064 123.020,283.423 123.200,282.776 123.200 C 282.129 123.200,281.600 123.380,281.600 123.600 C 281.600 123.820,280.880 124.000,280.000 124.000 C 279.120 124.000,278.400 124.180,278.400 124.400 C 278.400 124.620,277.770 124.800,277.000 124.800 C 276.230 124.800,275.600 124.995,275.600 125.233 C 275.600 125.472,275.375 125.588,275.100 125.491 C 274.825 125.394,274.150 125.494,273.600 125.713 C 273.050 125.931,272.204 126.088,271.720 126.061 C 271.236 126.034,270.730 126.189,270.596 126.406 C 270.462 126.623,269.924 126.800,269.400 126.800 C 268.876 126.800,268.336 126.980,268.200 127.200 C 268.064 127.420,267.344 127.600,266.600 127.600 C 265.856 127.600,265.136 127.780,265.000 128.000 C 264.864 128.220,264.234 128.400,263.600 128.400 C 262.966 128.400,262.336 128.580,262.200 128.800 C 262.064 129.020,261.333 129.200,260.576 129.200 C 259.819 129.200,259.200 129.380,259.200 129.600 C 259.200 129.820,258.761 130.000,258.224 130.000 C 257.687 130.000,257.136 130.180,257.000 130.400 C 256.864 130.620,256.043 130.800,255.176 130.800 C 254.309 130.800,253.600 130.980,253.600 131.200 C 253.600 131.420,253.186 131.600,252.680 131.600 C 252.174 131.600,251.589 131.771,251.379 131.981 C 251.170 132.190,250.335 132.406,249.525 132.461 C 248.715 132.515,248.141 132.704,248.249 132.880 C 248.358 133.056,247.817 133.200,247.047 133.200 C 246.277 133.200,245.536 133.380,245.400 133.600 C 245.264 133.820,244.623 134.000,243.976 134.000 C 243.329 134.000,242.800 134.180,242.800 134.400 C 242.800 134.620,242.260 134.800,241.600 134.800 C 240.940 134.800,240.400 134.980,240.400 135.200 C 240.400 135.420,239.781 135.600,239.024 135.600 C 238.267 135.600,237.536 135.780,237.400 136.000 C 237.264 136.220,236.544 136.400,235.800 136.400 C 235.056 136.400,234.336 136.580,234.200 136.800 C 234.064 137.020,233.413 137.200,232.753 137.200 C 232.055 137.200,231.656 137.367,231.800 137.600 C 231.949 137.841,231.412 138.000,230.447 138.000 C 229.567 138.000,228.736 138.180,228.600 138.400 C 228.464 138.620,227.924 138.800,227.400 138.800 C 226.876 138.800,226.336 138.980,226.200 139.200 C 226.064 139.420,225.333 139.600,224.576 139.600 C 223.819 139.600,223.200 139.780,223.200 140.000 C 223.200 140.220,222.660 140.400,222.000 140.400 C 221.340 140.400,220.800 140.580,220.800 140.800 C 220.800 141.020,220.260 141.200,219.600 141.200 C 218.940 141.200,218.400 141.380,218.400 141.600 C 218.400 141.820,218.040 142.000,217.600 142.000 C 217.160 142.000,216.800 142.174,216.800 142.387 C 216.800 142.601,216.573 142.688,216.295 142.581 C 215.770 142.380,212.800 145.004,212.800 145.669 C 212.800 145.877,212.620 145.936,212.400 145.800 C 212.172 145.659,212.000 146.004,212.000 146.600 C 212.000 147.196,211.828 147.541,211.600 147.400 C 211.380 147.264,211.200 147.523,211.200 147.976 C 211.200 148.429,211.022 148.800,210.804 148.800 C 210.544 148.800,210.406 176.616,210.402 229.869 C 210.396 306.801,210.350 311.958,209.678 310.966 C 209.266 310.357,205.648 308.758,204.125 308.510 C 203.396 308.392,202.800 308.139,202.800 307.948 C 202.800 307.756,202.080 307.600,201.200 307.600 C 200.320 307.600,199.600 307.420,199.600 307.200 C 199.600 306.980,198.891 306.800,198.024 306.800 C 197.157 306.800,196.336 306.620,196.200 306.400 C 195.866 305.859,178.934 305.859,178.600 306.400 C 178.464 306.620,177.733 306.800,176.976 306.800 C 176.219 306.800,175.600 306.980,175.600 307.200 C 175.600 307.420,174.880 307.600,174.000 307.600 C 173.120 307.600,172.400 307.780,172.400 308.000 C 172.400 308.220,171.939 308.400,171.376 308.400 C 170.794 308.400,170.460 308.573,170.601 308.801 C 170.747 309.037,170.472 309.145,169.933 309.063 C 169.429 308.986,168.473 309.255,167.809 309.660 C 167.144 310.065,166.362 310.398,166.071 310.399 C 165.781 310.399,165.271 310.672,164.939 311.004 C 164.607 311.336,164.170 311.505,163.968 311.380 C 163.765 311.255,163.600 311.343,163.600 311.576 C 163.600 311.809,163.364 312.000,163.075 312.000 C 162.787 312.000,162.164 312.360,161.692 312.800 C 161.220 313.240,160.646 313.600,160.417 313.600 C 160.188 313.600,160.000 313.741,160.000 313.914 C 160.000 314.086,159.421 314.569,158.714 314.987 C 157.292 315.827,149.600 323.493,149.600 324.070 C 149.600 324.270,149.240 324.820,148.800 325.292 C 148.360 325.764,148.000 326.398,148.000 326.699 C 148.000 327.001,147.835 327.145,147.632 327.020 C 147.430 326.895,147.055 327.426,146.800 328.200 C 146.545 328.974,146.170 329.505,145.968 329.380 C 145.765 329.255,145.600 329.523,145.600 329.976 C 145.600 330.429,145.420 330.800,145.200 330.800 C 144.980 330.800,144.800 331.160,144.800 331.600 C 144.800 332.040,144.609 332.400,144.376 332.400 C 144.143 332.400,144.055 332.565,144.180 332.768 C 144.305 332.970,144.129 333.414,143.789 333.753 C 143.450 334.093,143.187 334.513,143.206 334.686 C 143.238 334.971,143.150 335.292,142.519 337.200 C 142.410 337.530,142.230 338.476,142.118 339.303 C 142.007 340.129,141.755 340.905,141.558 341.026 C 141.361 341.148,141.200 341.957,141.200 342.824 C 141.200 343.691,141.020 344.400,140.800 344.400 C 140.545 344.400,140.400 347.600,140.400 353.200 C 140.400 358.800,140.545 362.000,140.800 362.000 C 141.020 362.000,141.200 362.709,141.200 363.576 C 141.200 364.443,141.361 365.252,141.558 365.374 C 141.755 365.495,142.001 366.271,142.104 367.097 C 142.374 369.241,144.722 375.200,145.298 375.200 C 145.464 375.200,145.600 375.560,145.600 376.000 C 145.600 376.440,145.780 376.800,146.000 376.800 C 146.220 376.800,146.400 377.120,146.400 377.512 C 146.400 377.903,146.760 378.483,147.200 378.800 C 147.640 379.117,148.000 379.678,148.000 380.046 C 148.000 380.413,148.256 380.813,148.570 380.933 C 148.883 381.053,149.444 381.793,149.815 382.576 C 150.187 383.359,150.771 384.000,151.112 384.000 C 151.454 384.000,151.623 384.110,151.488 384.245 C 150.889 384.844,158.226 391.229,161.286 392.773 C 161.884 393.074,162.278 393.473,162.163 393.660 C 162.047 393.847,162.323 394.000,162.776 394.000 C 163.229 394.000,163.600 394.180,163.600 394.400 C 163.600 394.620,163.960 394.800,164.400 394.800 C 164.840 394.800,165.200 394.980,165.200 395.200 C 165.200 395.420,165.560 395.600,166.000 395.600 C 166.440 395.600,166.800 395.780,166.800 396.000 C 166.800 396.220,167.160 396.400,167.600 396.400 C 168.040 396.400,168.400 396.580,168.400 396.800 C 168.400 397.020,168.760 397.200,169.200 397.200 C 169.640 397.200,170.003 397.425,170.006 397.700 C 170.010 398.033,170.142 398.000,170.400 397.600 C 170.658 397.200,170.790 397.167,170.794 397.500 C 170.797 397.775,171.160 398.000,171.600 398.000 C 172.040 398.000,172.400 398.180,172.400 398.400 C 172.400 398.620,173.105 398.800,173.967 398.800 C 174.864 398.800,175.604 399.013,175.700 399.300 C 175.828 399.684,178.512 399.800,187.313 399.800 C 195.937 399.800,198.883 399.677,199.260 399.300 C 199.535 399.025,200.343 398.800,201.056 398.800 C 201.769 398.800,202.464 398.620,202.600 398.400 C 202.736 398.180,203.297 398.000,203.847 398.000 C 204.412 398.000,204.740 397.826,204.600 397.600 C 204.460 397.374,204.788 397.200,205.353 397.200 C 205.903 397.200,206.464 397.020,206.600 396.800 C 206.736 396.580,207.197 396.400,207.624 396.400 C 208.051 396.400,208.400 396.220,208.400 396.000 C 208.400 395.780,208.670 395.600,209.000 395.600 C 209.330 395.600,209.600 395.420,209.600 395.200 C 209.600 394.980,209.960 394.800,210.400 394.800 C 210.840 394.800,211.200 394.620,211.200 394.400 C 211.200 394.180,211.520 394.000,211.912 394.000 C 212.303 394.000,212.883 393.640,213.200 393.200 C 213.517 392.760,214.031 392.400,214.341 392.400 C 214.652 392.400,215.229 392.028,215.623 391.574 C 216.017 391.119,216.455 390.773,216.595 390.805 C 217.518 391.013,225.200 383.353,225.200 382.226 C 225.200 381.979,225.560 381.517,226.000 381.200 C 226.440 380.883,226.800 380.343,226.800 380.000 C 226.800 379.657,227.160 379.117,227.600 378.800 C 228.040 378.483,228.400 377.903,228.400 377.512 C 228.400 377.120,228.580 376.800,228.800 376.800 C 229.020 376.800,229.200 376.440,229.200 376.000 C 229.200 375.560,229.380 375.200,229.600 375.200 C 229.820 375.200,230.000 374.840,230.000 374.400 C 230.000 373.960,230.180 373.600,230.400 373.600 C 230.620 373.600,230.800 373.330,230.800 373.000 C 230.800 372.670,230.980 372.400,231.200 372.400 C 231.420 372.400,231.600 371.950,231.600 371.400 C 231.600 370.850,231.780 370.400,232.000 370.400 C 232.220 370.400,232.400 369.950,232.400 369.400 C 232.400 368.850,232.580 368.400,232.800 368.400 C 233.020 368.400,233.200 367.680,233.200 366.800 C 233.200 365.920,233.380 365.200,233.600 365.200 C 233.820 365.200,234.000 364.491,234.000 363.624 C 234.000 362.757,234.180 361.936,234.400 361.800 C 234.664 361.637,234.800 339.786,234.800 297.548 C 234.800 227.451,234.622 232.400,237.148 232.400 C 237.811 232.400,238.464 232.220,238.600 232.000 C 238.736 231.780,239.387 231.600,240.047 231.600 C 240.745 231.600,241.144 231.433,241.000 231.200 C 240.851 230.958,241.396 230.800,242.376 230.800 C 243.269 230.800,244.000 230.620,244.000 230.400 C 244.000 230.180,244.619 230.000,245.376 230.000 C 246.133 230.000,246.864 229.820,247.000 229.600 C 247.136 229.380,247.777 229.200,248.424 229.200 C 249.071 229.200,249.600 229.020,249.600 228.800 C 249.600 228.580,250.219 228.400,250.976 228.400 C 251.733 228.400,252.464 228.220,252.600 228.000 C 252.736 227.780,253.362 227.600,253.990 227.600 C 254.619 227.600,255.193 227.426,255.267 227.213 C 255.340 227.000,255.985 226.781,256.700 226.728 C 257.415 226.674,258.000 226.488,258.000 226.315 C 258.000 226.142,258.540 226.000,259.200 226.000 C 259.860 226.000,260.400 225.820,260.400 225.600 C 260.400 225.380,261.028 225.200,261.796 225.200 C 262.563 225.200,264.061 224.870,265.123 224.466 C 266.186 224.062,267.358 223.776,267.728 223.831 C 268.097 223.885,268.400 223.765,268.400 223.565 C 268.400 223.364,268.994 223.200,269.720 223.200 C 270.446 223.200,271.211 223.050,271.420 222.867 C 271.925 222.425,274.873 221.600,275.946 221.600 C 276.416 221.600,276.800 221.420,276.800 221.200 C 276.800 220.980,277.419 220.800,278.176 220.800 C 278.933 220.800,279.664 220.620,279.800 220.400 C 279.936 220.180,280.566 220.000,281.200 220.000 C 281.834 220.000,282.464 219.820,282.600 219.600 C 282.736 219.380,283.366 219.200,284.000 219.200 C 284.634 219.200,285.264 219.020,285.400 218.800 C 285.536 218.580,286.166 218.400,286.800 218.400 C 287.434 218.400,288.064 218.220,288.200 218.000 C 288.336 217.780,288.977 217.600,289.624 217.600 C 290.271 217.600,290.800 217.420,290.800 217.200 C 290.800 216.980,291.419 216.800,292.176 216.800 C 292.933 216.800,293.664 216.620,293.800 216.400 C 293.936 216.180,294.577 216.000,295.224 216.000 C 295.871 216.000,296.400 215.820,296.400 215.600 C 296.400 215.380,296.929 215.200,297.576 215.200 C 298.223 215.200,298.864 215.020,299.000 214.800 C 299.136 214.580,299.877 214.400,300.647 214.400 C 301.479 214.400,301.947 214.238,301.800 214.000 C 301.651 213.759,302.185 213.600,303.143 213.600 C 304.018 213.600,304.800 213.401,304.881 213.157 C 304.962 212.913,305.607 212.690,306.314 212.661 C 307.817 212.600,308.076 212.000,306.600 212.000 L 305.600 212.000 305.600 164.400 L 305.600 116.800 304.633 116.800 C 304.102 116.800,303.607 116.972,303.533 117.182 M359.051 197.683 C 359.325 198.127,360.400 198.080,360.400 197.625 C 360.400 197.419,360.052 197.276,359.628 197.308 C 359.203 197.340,358.944 197.509,359.051 197.683 M326.176 206.987 C 325.749 207.310,325.580 207.575,325.800 207.575 C 326.020 207.575,326.549 207.310,326.976 206.987 C 327.404 206.664,327.573 206.400,327.353 206.400 C 327.133 206.400,326.604 206.664,326.176 206.987 M323.300 207.500 C 322.749 207.684,322.609 208.400,323.124 208.400 C 323.301 208.400,323.775 208.160,324.176 207.867 C 324.908 207.332,324.419 207.127,323.300 207.500 M317.200 209.200 C 317.200 209.420,317.560 209.600,318.000 209.600 C 318.440 209.600,318.800 209.420,318.800 209.200 C 318.800 208.980,318.440 208.800,318.000 208.800 C 317.560 208.800,317.200 208.980,317.200 209.200 M314.600 210.000 C 314.464 210.220,314.723 210.400,315.176 210.400 C 315.629 210.400,316.000 210.220,316.000 210.000 C 316.000 209.780,315.741 209.600,315.424 209.600 C 315.107 209.600,314.736 209.780,314.600 210.000 M312.000 210.800 C 312.000 211.020,312.259 211.200,312.576 211.200 C 312.893 211.200,313.264 211.020,313.400 210.800 C 313.536 210.580,313.277 210.400,312.824 210.400 C 312.371 210.400,312.000 210.580,312.000 210.800 " stroke="none" fill="#4cb3fc" fill-rule="evenodd"></path><path id="path2" d="M383.841 94.467 C 383.955 94.650,383.713 94.800,383.304 94.800 C 382.895 94.800,382.337 95.023,382.063 95.297 C 381.668 95.692,381.490 95.672,381.189 95.197 C 380.982 94.868,380.809 94.804,380.806 95.053 C 380.799 95.572,379.543 96.064,377.810 96.226 C 377.156 96.287,376.556 96.532,376.477 96.769 C 376.398 97.006,375.819 97.200,375.190 97.200 C 374.562 97.200,373.936 97.380,373.800 97.600 C 373.664 97.820,373.373 98.000,373.153 98.000 C 372.933 98.000,372.888 97.775,373.053 97.500 C 373.288 97.109,373.226 97.103,372.767 97.474 C 372.281 97.867,371.204 98.164,369.529 98.367 C 369.379 98.385,368.974 98.683,368.629 99.029 C 368.283 99.374,368.000 99.464,368.000 99.229 C 368.000 98.993,367.700 98.800,367.333 98.800 C 366.967 98.800,366.784 98.917,366.927 99.061 C 367.326 99.459,365.253 100.400,363.978 100.400 C 363.356 100.400,362.736 100.580,362.600 100.800 C 362.464 101.020,361.643 101.200,360.776 101.200 C 359.909 101.200,359.200 101.380,359.200 101.600 C 359.200 101.820,358.559 102.000,357.776 102.000 C 356.929 102.000,356.453 102.162,356.600 102.400 C 356.744 102.633,356.337 102.800,355.624 102.800 C 354.951 102.800,354.400 102.980,354.400 103.200 C 354.400 103.420,354.085 103.597,353.700 103.594 C 353.102 103.589,353.087 103.531,353.600 103.200 C 353.961 102.967,354.010 102.810,353.724 102.806 C 353.462 102.803,353.136 102.980,353.000 103.200 C 352.864 103.420,352.178 103.613,351.476 103.628 C 350.400 103.652,350.326 103.710,351.000 104.000 C 351.642 104.276,351.503 104.349,350.300 104.372 C 349.475 104.387,348.800 104.580,348.800 104.800 C 348.800 105.020,348.519 105.200,348.176 105.200 C 347.833 105.200,347.664 105.020,347.800 104.800 C 348.267 104.044,347.376 104.400,346.800 105.200 C 346.483 105.640,345.948 105.997,345.612 105.994 C 345.071 105.988,345.069 105.943,345.600 105.600 C 345.961 105.367,346.010 105.210,345.724 105.206 C 345.462 105.203,345.136 105.380,345.000 105.600 C 344.864 105.820,344.303 106.000,343.753 106.000 C 343.188 106.000,342.860 106.174,343.000 106.400 C 343.147 106.638,342.671 106.800,341.824 106.800 C 341.041 106.800,340.400 106.980,340.400 107.200 C 340.400 107.420,339.635 107.603,338.700 107.606 C 337.455 107.611,337.161 107.716,337.600 108.000 C 338.034 108.280,337.674 108.389,336.300 108.394 C 335.255 108.397,334.400 108.578,334.400 108.796 C 334.400 109.013,333.995 109.179,333.500 109.165 C 332.725 109.142,330.706 109.389,329.082 109.706 C 328.817 109.758,328.482 109.963,328.338 110.162 C 328.194 110.361,327.481 110.507,326.754 110.486 C 325.799 110.459,325.594 110.551,326.016 110.818 C 326.433 111.082,326.165 111.189,325.076 111.194 C 324.164 111.198,323.652 111.360,323.800 111.600 C 323.952 111.846,323.231 112.011,321.924 112.028 C 320.368 112.049,320.014 112.148,320.600 112.400 C 321.246 112.678,321.118 112.749,319.933 112.772 C 319.127 112.787,318.375 113.025,318.264 113.300 C 318.111 113.676,317.956 113.652,317.637 113.200 C 317.349 112.793,317.210 112.761,317.206 113.100 C 317.203 113.375,316.855 113.600,316.433 113.600 C 316.012 113.600,315.575 113.825,315.464 114.100 C 315.311 114.476,315.156 114.452,314.837 114.000 C 314.549 113.593,314.410 113.561,314.406 113.900 C 314.403 114.175,313.939 114.400,313.376 114.400 C 312.796 114.400,312.460 114.573,312.600 114.800 C 312.836 115.182,311.485 115.386,309.856 115.214 C 309.412 115.167,309.220 115.309,309.380 115.567 C 309.553 115.847,309.136 116.000,308.200 116.000 C 307.337 116.000,306.853 116.161,307.000 116.400 C 307.136 116.620,306.877 116.800,306.424 116.800 L 305.600 116.800 305.600 164.400 L 305.600 212.000 307.176 212.000 C 308.043 212.000,308.864 211.820,309.000 211.600 C 309.136 211.380,309.867 211.200,310.624 211.200 C 311.381 211.200,312.000 211.020,312.000 210.800 C 312.000 210.580,312.529 210.400,313.176 210.400 C 313.823 210.400,314.464 210.220,314.600 210.000 C 314.736 209.780,315.377 209.600,316.024 209.600 C 316.671 209.600,317.200 209.417,317.200 209.194 C 317.200 208.970,317.695 208.792,318.300 208.798 C 320.200 208.817,322.543 208.314,323.087 207.771 C 323.374 207.483,323.999 207.323,324.475 207.414 C 324.951 207.506,325.583 207.380,325.879 207.135 C 326.432 206.676,327.343 206.466,330.300 206.119 C 331.235 206.009,332.000 205.758,332.000 205.560 C 332.000 205.362,332.439 205.200,332.976 205.200 C 333.513 205.200,334.046 205.050,334.159 204.866 C 334.273 204.683,335.138 204.502,336.083 204.465 C 337.027 204.428,337.860 204.219,337.933 203.999 C 338.007 203.780,338.401 203.600,338.810 203.600 C 339.218 203.600,339.676 203.401,339.826 203.157 C 340.017 202.849,340.204 202.879,340.444 203.257 C 340.697 203.657,340.789 203.668,340.794 203.300 C 340.797 203.012,341.310 202.800,342.000 202.800 C 342.660 202.800,343.200 202.620,343.200 202.400 C 343.200 202.180,343.965 201.987,344.900 201.972 C 346.217 201.950,346.420 201.866,345.800 201.600 C 345.126 201.310,345.200 201.252,346.276 201.228 C 346.978 201.213,347.664 201.020,347.800 200.800 C 347.936 200.580,348.577 200.400,349.224 200.400 C 349.895 200.400,350.403 200.185,350.406 199.900 C 350.410 199.567,350.542 199.600,350.800 200.000 C 351.058 200.400,351.190 200.433,351.194 200.100 C 351.197 199.810,351.715 199.600,352.424 199.600 C 353.137 199.600,353.544 199.433,353.400 199.200 C 353.251 198.958,353.796 198.800,354.776 198.800 C 355.669 198.800,356.400 198.620,356.400 198.400 C 356.400 198.180,356.942 198.000,357.605 198.000 C 358.268 198.000,359.168 197.820,359.605 197.600 C 360.042 197.380,360.784 197.003,361.254 196.763 C 361.906 196.429,362.187 196.453,362.447 196.863 C 362.701 197.263,362.789 197.272,362.794 196.900 C 362.797 196.625,363.160 196.400,363.600 196.400 C 364.040 196.400,364.400 196.220,364.400 196.000 C 364.400 195.780,364.929 195.600,365.576 195.600 C 366.223 195.600,366.864 195.420,367.000 195.200 C 367.136 194.980,368.092 194.797,369.124 194.794 C 370.483 194.789,370.835 194.681,370.400 194.400 C 369.881 194.065,369.890 194.011,370.467 194.006 C 370.833 194.003,371.224 194.225,371.335 194.500 C 371.496 194.900,371.543 194.900,371.568 194.500 C 371.586 194.225,371.870 194.000,372.200 194.000 C 372.530 194.000,372.800 193.820,372.800 193.600 C 372.800 193.380,373.340 193.200,374.000 193.200 C 374.660 193.200,375.200 193.020,375.200 192.800 C 375.200 192.580,375.380 192.400,375.600 192.400 C 375.864 192.400,376.000 204.667,376.000 228.400 C 376.000 261.934,375.901 265.458,375.000 264.000 C 374.864 263.780,374.313 263.600,373.776 263.600 C 373.239 263.600,372.800 263.420,372.800 263.200 C 372.800 262.980,372.530 262.800,372.200 262.800 C 371.870 262.800,371.600 262.620,371.600 262.400 C 371.600 262.180,371.276 262.000,370.880 262.000 C 370.484 262.000,369.918 261.775,369.621 261.500 C 369.190 261.099,369.140 261.101,369.371 261.510 C 369.533 261.796,369.026 261.664,368.218 261.210 C 367.425 260.764,366.241 260.400,365.588 260.400 C 364.935 260.400,364.400 260.235,364.400 260.034 C 364.400 259.832,363.725 259.687,362.900 259.710 C 362.075 259.733,361.040 259.566,360.600 259.339 C 359.569 258.808,344.558 258.928,343.200 259.479 C 342.650 259.702,341.795 259.850,341.300 259.809 C 340.805 259.768,340.400 259.884,340.400 260.067 C 340.400 260.250,339.770 260.400,339.000 260.400 C 338.230 260.400,337.600 260.580,337.600 260.800 C 337.600 261.020,337.251 261.200,336.824 261.200 C 336.397 261.200,335.936 261.380,335.800 261.600 C 335.664 261.820,335.023 262.000,334.376 262.000 C 333.729 262.000,333.200 262.180,333.200 262.400 C 333.200 262.620,332.840 262.800,332.400 262.800 C 331.960 262.800,331.600 262.980,331.600 263.200 C 331.600 263.420,331.240 263.600,330.800 263.600 C 330.360 263.600,330.000 263.780,330.000 264.000 C 330.000 264.220,329.764 264.400,329.475 264.400 C 329.187 264.400,328.557 264.767,328.075 265.216 C 327.594 265.664,327.194 265.889,327.187 265.716 C 327.180 265.542,326.944 265.704,326.661 266.075 C 326.379 266.447,325.903 266.807,325.605 266.875 C 325.306 266.944,324.433 267.577,323.665 268.283 C 322.897 268.989,322.119 269.473,321.935 269.360 C 321.751 269.246,321.600 269.444,321.600 269.800 C 321.600 270.156,321.465 270.373,321.300 270.283 C 321.135 270.192,320.051 271.082,318.892 272.259 C 317.733 273.437,316.876 274.400,316.988 274.400 C 317.100 274.400,316.892 274.751,316.525 275.180 C 316.158 275.608,315.709 275.868,315.529 275.756 C 315.348 275.644,315.200 275.728,315.200 275.942 C 315.200 276.157,314.841 276.752,314.402 277.266 C 313.097 278.794,311.653 281.120,311.873 281.340 C 311.986 281.452,311.700 281.780,311.239 282.069 C 310.778 282.357,310.400 282.909,310.400 283.296 C 310.400 283.683,310.226 284.000,310.013 284.000 C 309.799 284.000,309.722 284.252,309.840 284.560 C 309.958 284.867,309.862 285.238,309.627 285.383 C 309.392 285.528,309.200 285.997,309.200 286.424 C 309.200 286.851,309.020 287.200,308.800 287.200 C 308.580 287.200,308.400 287.740,308.400 288.400 C 308.400 289.060,308.220 289.600,308.000 289.600 C 307.780 289.600,307.600 289.949,307.600 290.376 C 307.600 290.803,307.420 291.264,307.200 291.400 C 306.980 291.536,306.800 292.166,306.800 292.800 C 306.800 293.434,306.620 294.064,306.400 294.200 C 306.180 294.336,306.000 295.167,306.000 296.047 C 306.000 297.221,305.867 297.567,305.500 297.347 C 305.209 297.172,305.250 297.361,305.600 297.800 C 305.950 298.239,305.991 298.428,305.700 298.253 C 305.082 297.882,304.964 314.404,305.581 315.021 C 305.790 315.230,306.007 316.076,306.063 316.901 C 306.118 317.725,306.307 318.400,306.482 318.400 C 306.657 318.400,306.800 319.120,306.800 320.000 C 306.800 320.880,306.980 321.600,307.200 321.600 C 307.420 321.600,307.600 321.870,307.600 322.200 C 307.600 322.530,307.780 322.800,308.000 322.800 C 308.220 322.800,308.400 323.219,308.400 323.732 C 308.400 324.245,308.849 325.550,309.398 326.632 C 309.947 327.714,310.397 328.900,310.398 329.267 C 310.399 329.633,310.542 329.993,310.714 330.067 C 311.280 330.306,312.800 332.708,312.800 333.362 C 312.800 333.713,313.081 334.000,313.424 334.000 C 313.767 334.000,313.936 334.180,313.800 334.400 C 313.664 334.620,313.747 334.800,313.985 334.800 C 314.223 334.800,314.630 335.268,314.891 335.840 C 315.333 336.811,319.600 341.449,319.600 340.959 C 319.600 340.836,320.306 341.469,321.169 342.367 C 322.031 343.265,322.982 344.000,323.280 344.000 C 323.579 344.000,324.083 344.360,324.400 344.800 C 324.717 345.240,325.205 345.600,325.484 345.600 C 325.953 345.600,326.930 346.279,328.216 347.500 C 328.506 347.775,329.026 348.000,329.371 348.000 C 329.717 348.000,330.000 348.180,330.000 348.400 C 330.000 348.620,330.234 348.800,330.520 348.800 C 331.256 348.800,333.193 349.741,333.197 350.100 C 333.199 350.265,333.751 350.400,334.424 350.400 C 335.137 350.400,335.544 350.567,335.400 350.800 C 335.260 351.027,335.596 351.200,336.176 351.200 C 336.739 351.200,337.200 351.380,337.200 351.600 C 337.200 351.820,337.909 352.000,338.776 352.000 C 339.643 352.000,340.464 352.180,340.600 352.400 C 340.736 352.620,341.467 352.800,342.224 352.800 C 342.981 352.800,343.600 352.961,343.600 353.157 C 343.600 353.680,360.666 353.741,360.988 353.219 C 361.131 352.988,361.856 352.800,362.600 352.800 C 363.344 352.800,364.064 352.620,364.200 352.400 C 364.336 352.180,365.052 352.000,365.790 352.000 C 366.529 352.000,367.193 351.822,367.267 351.603 C 367.340 351.385,367.882 351.167,368.471 351.119 C 369.060 351.070,369.455 350.888,369.348 350.715 C 369.240 350.542,369.703 350.400,370.376 350.400 C 371.049 350.400,371.600 350.220,371.600 350.000 C 371.600 349.780,371.971 349.600,372.424 349.600 C 372.877 349.600,373.136 349.420,373.000 349.200 C 372.859 348.971,373.214 348.800,373.829 348.800 C 374.422 348.800,375.199 348.485,375.557 348.100 C 376.405 347.189,377.825 346.400,378.618 346.400 C 378.964 346.400,379.136 346.220,379.000 346.000 C 378.864 345.780,378.994 345.600,379.288 345.600 C 379.583 345.600,380.083 345.240,380.400 344.800 C 380.717 344.360,381.221 344.000,381.520 344.000 C 381.818 344.000,382.747 343.288,383.583 342.418 C 384.419 341.548,385.210 340.944,385.342 341.075 C 385.474 341.207,385.695 341.019,385.833 340.657 C 385.972 340.296,386.366 340.000,386.709 340.000 C 387.053 340.000,387.231 339.898,387.106 339.772 C 386.981 339.647,387.941 338.442,389.239 337.094 C 390.538 335.746,391.600 334.359,391.600 334.010 C 391.600 333.662,391.960 333.117,392.400 332.800 C 392.840 332.483,393.200 331.943,393.200 331.600 C 393.200 331.257,393.560 330.717,394.000 330.400 C 394.440 330.083,394.800 329.503,394.800 329.112 C 394.800 328.720,394.980 328.400,395.200 328.400 C 395.420 328.400,395.600 328.040,395.600 327.600 C 395.600 327.160,395.780 326.800,396.000 326.800 C 396.220 326.800,396.400 326.350,396.400 325.800 C 396.400 325.250,396.580 324.800,396.800 324.800 C 397.020 324.800,397.200 324.440,397.200 324.000 C 397.200 323.560,397.391 323.200,397.624 323.200 C 397.857 323.200,397.952 323.047,397.836 322.859 C 397.720 322.671,397.884 322.176,398.200 321.759 C 398.516 321.342,398.780 320.340,398.787 319.533 C 398.794 318.726,399.025 317.992,399.300 317.900 C 400.184 317.605,400.017 100.360,399.132 99.475 C 398.640 98.982,398.412 98.937,398.264 99.304 C 398.128 99.639,398.053 99.605,398.031 99.200 C 397.984 98.323,396.214 96.400,395.453 96.400 C 395.094 96.400,394.800 96.141,394.800 95.824 C 394.800 95.507,394.592 95.119,394.338 94.962 C 394.029 94.771,393.982 94.862,394.197 95.238 C 394.456 95.693,394.414 95.704,393.979 95.300 C 393.682 95.025,393.026 94.800,392.520 94.800 C 392.014 94.800,391.600 94.634,391.600 94.432 C 391.600 93.970,386.069 94.092,385.034 94.577 C 384.537 94.810,384.356 94.795,384.517 94.535 C 384.653 94.314,384.511 94.133,384.200 94.133 C 383.889 94.133,383.728 94.283,383.841 94.467 " stroke="none" fill="#4c94fc" fill-rule="evenodd"></path><path id="path3" d="M73.002 2.798 C 72.603 3.239,72.407 3.600,72.567 3.600 C 72.988 3.600,74.128 2.395,73.912 2.179 C 73.811 2.078,73.402 2.356,73.002 2.798 M116.467 59.333 C 116.741 59.627,117.222 59.867,117.535 59.867 C 117.950 59.867,117.906 59.721,117.376 59.333 C 116.975 59.040,116.494 58.800,116.308 58.800 C 116.121 58.800,116.193 59.040,116.467 59.333 " stroke="none" fill="#c0a4fc" fill-rule="evenodd"></path><path id="path4" d="" stroke="none" fill="#6ca4fc" fill-rule="evenodd"></path></g></svg>