<svg xmlns="http://www.w3.org/2000/svg" version="1.1" xmlns:xlink="http://www.w3.org/1999/xlink" xmlns:svgjs="http://svgjs.dev/svgjs" width="2560" height="1440" preserveAspectRatio="none" viewBox="0 0 2560 1440"><g mask="url(&quot;#SvgjsMask1036&quot;)" fill="none"><rect width="2560" height="1440" x="0" y="0" fill="rgba(2, 6, 24, 1)"></rect><path d="M -219.92129486369498,990 C -177.12,882.8 -91.52,494 -5.921294863694993,454 C 79.68,414 122.48,759.6 208.07870513630502,790 C 293.68,820.4 336.48,554.6 422.078705136305,606 C 507.68,657.4 550.48,1070.8 636.078705136305,1047 C 721.68,1023.2 764.48,488.4 850.078705136305,487 C 935.68,485.6 978.48,1059.4 1064.078705136305,1040 C 1149.68,1020.6 1192.48,411.8 1278.078705136305,390 C 1363.68,368.2 1406.48,885.8 1492.078705136305,931 C 1577.68,976.2 1620.48,619.8 1706.078705136305,616 C 1791.68,612.2 1834.48,924.8 1920.078705136305,912 C 2005.68,899.2 2048.48,588.4 2134.078705136305,552 C 2219.68,515.6 2262.48,756.2 2348.078705136305,730 C 2433.68,703.8 2519.69,377.2 2562.078705136305,421 C 2604.46,464.8 2560.42,843.4 2560,949" stroke="rgba(51, 56, 107, 0.15)" stroke-width="2"></path><path d="M -309.4998641131915,385 C -266.7,491.2 -181.1,906.4 -95.49986411319153,916 C -9.9,925.6 32.9,402.8 118.50013588680847,433 C 204.1,463.2 246.9,1040.2 332.5001358868085,1067 C 418.1,1093.8 460.9,572.6 546.5001358868085,567 C 632.1,561.4 674.9,1017 760.5001358868085,1039 C 846.1,1061 888.9,674.4 974.5001358868085,677 C 1060.1,679.6 1102.9,1059.6 1188.5001358868085,1052 C 1274.1,1044.4 1316.9,676 1402.5001358868085,639 C 1488.1,602 1530.9,884.8 1616.5001358868085,867 C 1702.1,849.2 1744.9,565 1830.5001358868085,550 C 1916.1,535 1958.9,807.8 2044.5001358868085,792 C 2130.1,776.2 2172.9,441.6 2258.5001358868085,471 C 2344.1,500.4 2412.2,894.2 2472.5001358868085,939 C 2532.8,983.8 2542.5,743.8 2560,695" stroke="rgba(66, 68, 90, 0.56)" stroke-width="2"></path></g><defs><mask id="SvgjsMask1036"><rect width="2560" height="1440" fill="#ffffff"></rect></mask></defs></svg>